<?xml version="1.0" standalone="no"?>
<!DOCTYPE svg PUBLIC "-//W3C//DTD SVG 20010904//EN"
 "http://www.w3.org/TR/2001/REC-SVG-20010904/DTD/svg10.dtd">
<svg version="1.0" xmlns="http://www.w3.org/2000/svg"
 width="192.000000pt" height="192.000000pt" viewBox="0 0 192.000000 192.000000"
 preserveAspectRatio="xMidYMid meet">
<metadata>
Created by potrace 1.11, written by Peter Selinger 2001-2013
</metadata>
<g transform="translate(0.000000,192.000000) scale(0.100000,-0.100000)"
fill="#000000" stroke="none">
<path d="M835 1830 c-373 -59 -665 -339 -741 -711 -22 -109 -15 -291 16 -399
90 -316 350 -558 675 -627 90 -19 260 -19 350 0 325 69 585 311 675 627 31
108 38 290 16 399 -69 342 -318 606 -651 691 -92 24 -253 33 -340 20z m174
-374 c58 -30 61 -45 61 -281 l0 -215 40 0 c23 0 54 -7 70 -15 55 -29 60 -45
60 -210 0 -120 3 -155 16 -173 17 -24 65 -30 82 -9 6 7 11 99 13 226 l3 214
-57 2 c-52 1 -62 5 -93 37 -61 61 -60 147 4 205 l36 33 -58 56 -58 56 23 24
c12 13 27 24 33 24 18 0 234 -223 245 -253 7 -17 11 -141 11 -320 0 -331 -2
-341 -76 -385 -66 -38 -143 -17 -184 51 -18 28 -20 51 -20 195 l0 162 -45 0
-45 0 0 -215 0 -215 -280 0 -280 0 0 465 c0 509 0 508 58 539 39 22 400 23
441 2z"/>
<path d="M627 1353 c-4 -3 -7 -69 -7 -145 l0 -138 170 0 170 0 0 145 0 145
-163 0 c-90 0 -167 -3 -170 -7z"/>
<path d="M1260 1170 c-11 -11 -20 -29 -20 -40 0 -22 33 -60 53 -60 27 0 57 31
57 60 0 18 -8 34 -22 44 -30 21 -44 20 -68 -4z"/>
</g>
</svg>
